<?xml version="1.0" standalone="no"?>
<!DOCTYPE svg PUBLIC "-//W3C//DTD SVG 20010904//EN"
 "http://www.w3.org/TR/2001/REC-SVG-20010904/DTD/svg10.dtd">
<svg version="1.0" xmlns="http://www.w3.org/2000/svg"
 width="512.000000pt" height="512.000000pt" viewBox="0 0 512.000000 512.000000"
 preserveAspectRatio="xMidYMid meet">
<metadata>
Created by potrace 1.14, written by Peter Selinger 2001-2017
</metadata>
<g transform="translate(0.000000,512.000000) scale(0.100000,-0.100000)"
fill="#000000" stroke="none">
<path d="M1548 5092 c-10 -16 -13 -71 -13 -251 l0 -231 -255 -1 c-330 0 -389
-8 -547 -69 -322 -124 -558 -403 -639 -755 -18 -76 -19 -152 -19 -1465 0 -762
3 -1405 7 -1430 74 -444 427 -800 863 -869 78 -13 3165 -14 3220 -1 22 4 56
11 75 14 201 33 455 195 596 381 110 145 189 339 209 515 8 66 9 2755 1 2768
-3 4 -8 31 -12 58 -14 106 -98 310 -168 409 -118 167 -310 318 -486 381 -151
53 -221 62 -514 63 -149 1 -272 3 -274 6 -2 2 -4 106 -4 232 0 193 -2 231 -15
246 -19 20 -42 22 -67 4 -15 -11 -17 -37 -19 -247 l-2 -235 -925 -3 -925 -2 0
226 c0 138 -4 235 -10 248 -14 28 -59 33 -77 8z"/>
</g>
</svg>
